<svg xmlns="http://www.w3.org/2000/svg" width="32" height="32" viewBox="0 0 32 32">
  <path d="M13 4
           C13 2 16 2 16 4
           L16 17
           C18 16 20.5 17 20.5 19.5
           L20.5 17.5
           C22.5 16.5 25 17.5 25 20
           L25 20
           C26.5 19 28 20 28 22
           L28 25
           C28 28.5 24.5 31 21 31
           L15 31
           C11.5 31 9 28.5 9 25
           L9 19
           C9 16.5 11.5 15.5 13 17
           Z"
        fill="#0A091E" stroke="#0A091E" stroke-width="2" stroke-linejoin="round"/>
  <path d="M13 4
           C13 2 16 2 16 4
           L16 17
           C18 16 20.5 17 20.5 19.5
           L20.5 17.5
           C22.5 16.5 25 17.5 25 20
           L25 20
           C26.5 19 28 20 28 22
           L28 25
           C28 28.5 24.5 31 21 31
           L15 31
           C11.5 31 9 28.5 9 25
           L9 19
           C9 16.5 11.5 15.5 13 17
           Z"
        fill="#2388FF"/>
</svg>
