<svg width="179" height="179" viewBox="0 0 179 179" fill="none" xmlns="http://www.w3.org/2000/svg">
<path d="M169.522 89.0293C169.522 44.5747 133.484 8.53665 89.0293 8.53665C44.5747 8.53665 8.53665 44.5747 8.53665 89.0293C8.53665 133.484 44.5747 169.522 89.0293 169.522C133.484 169.522 169.522 133.484 169.522 89.0293ZM178.059 89.0293C178.059 138.199 138.199 178.059 89.0293 178.059C39.8598 178.059 0 138.199 0 89.0293C0 39.8598 39.8598 0 89.0293 0C138.199 0 178.059 39.8598 178.059 89.0293Z" fill="url(#paint0_linear_658_4331)"/>
<mask id="mask0_658_4331" style="mask-type:alpha" maskUnits="userSpaceOnUse" x="21" y="20" width="137" height="137">
<path fill-rule="evenodd" clip-rule="evenodd" d="M89.5503 20.8262C126.931 20.8262 157.233 51.1289 157.233 88.5093C157.233 125.89 126.931 156.192 89.5503 156.192C52.1699 156.192 21.8672 125.89 21.8672 88.5093C21.8672 51.1289 52.1699 20.8262 89.5503 20.8262ZM72.4475 104.558C69.047 98.04 56.7207 85.8127 34.6178 89.0431L34.8476 89.52C40.3532 100.967 47.9665 116.798 72.4475 104.558ZM144.483 89.0431C122.38 85.8127 110.054 98.04 106.653 104.558C131.134 116.798 138.747 100.968 144.253 89.52L144.483 89.0431ZM89.7852 66.2946C89.7121 65.8331 88.8261 65.8331 88.7531 66.2946L88.145 70.172C87.3594 75.1779 82.1392 79.1253 75.5184 79.7194L70.3904 80.179C69.7793 80.234 69.7794 80.904 70.3904 80.959L75.5184 81.4196C82.1391 82.0138 87.3593 85.9602 88.145 90.966L88.7531 94.8434C88.8259 95.3052 89.7123 95.3052 89.7852 94.8434L90.3933 90.966C91.1789 85.9601 96.3991 82.0137 103.02 81.4196L108.148 80.959C108.759 80.9039 108.759 80.2342 108.148 80.179L103.02 79.7194C96.399 79.1254 91.1789 75.178 90.3933 70.172L89.7852 66.2946Z" fill="white"/>
</mask>
<g mask="url(#mask0_658_4331)">
<circle cx="89.5503" cy="88.5093" r="67.6831" fill="url(#paint1_linear_658_4331)"/>
<g opacity="0.4" filter="url(#filter0_fg_658_4331)">
<ellipse cx="100.429" cy="85.5047" rx="100.429" ry="85.5047" transform="matrix(1 0 0 -1 -10.1758 286.597)" fill="url(#paint2_linear_658_4331)"/>
<path d="M90.2539 286.076C145.513 286.076 190.162 247.952 190.162 201.092C190.162 154.232 145.513 116.109 90.2539 116.108C34.9943 116.108 -9.65514 154.232 -9.65527 201.092C-9.65527 247.952 34.9942 286.076 90.2539 286.076Z" stroke="white" stroke-width="1.04128"/>
</g>
<g filter="url(#filter1_fg_658_4331)" style="mix-blend-mode:plus-lighter">
<ellipse cx="53.4314" cy="41.3513" rx="53.4314" ry="41.3513" transform="matrix(1 0 0 -1 36.8223 211.812)" fill="#3F6EC2"/>
<path d="M90.2539 211.291C119.608 211.291 143.164 192.894 143.164 170.46C143.164 148.026 119.607 129.63 90.2539 129.63C60.9002 129.63 37.343 148.026 37.3428 170.46C37.3428 192.894 60.9001 211.291 90.2539 211.291Z" stroke="white" stroke-width="1.04128"/>
</g>
</g>
<defs>
<filter id="filter0_fg_658_4331" x="-73.2457" y="52.517" width="326.999" height="297.15" filterUnits="userSpaceOnUse" color-interpolation-filters="sRGB">
<feFlood flood-opacity="0" result="BackgroundImageFix"/>
<feBlend mode="normal" in="SourceGraphic" in2="BackgroundImageFix" result="shape"/>
<feGaussianBlur stdDeviation="31.5349" result="effect1_foregroundBlur_658_4331"/>
<feTurbulence type="fractalNoise" baseFrequency="0.99900001287460327 0.99900001287460327" numOctaves="3" seed="3243" />
<feDisplacementMap in="effect1_foregroundBlur_658_4331" scale="56.659687042236328" xChannelSelector="R" yChannelSelector="G" result="displacedImage" width="100%" height="100%" />
<feMerge result="effect2_texture_658_4331">
<feMergeNode in="displacedImage"/>
</feMerge>
</filter>
<filter id="filter1_fg_658_4331" x="2.41635" y="94.7035" width="175.675" height="151.514" filterUnits="userSpaceOnUse" color-interpolation-filters="sRGB">
<feFlood flood-opacity="0" result="BackgroundImageFix"/>
<feBlend mode="normal" in="SourceGraphic" in2="BackgroundImageFix" result="shape"/>
<feGaussianBlur stdDeviation="17.203" result="effect1_foregroundBlur_658_4331"/>
<feTurbulence type="fractalNoise" baseFrequency="0.99900001287460327 0.99900001287460327" numOctaves="3" seed="3894" />
<feDisplacementMap in="effect1_foregroundBlur_658_4331" scale="56.659687042236328" xChannelSelector="R" yChannelSelector="G" result="displacedImage" width="100%" height="100%" />
<feMerge result="effect2_texture_658_4331">
<feMergeNode in="displacedImage"/>
</feMerge>
</filter>
<linearGradient id="paint0_linear_658_4331" x1="89.0293" y1="0" x2="89.0293" y2="178.059" gradientUnits="userSpaceOnUse">
<stop stop-color="#3F7DFF"/>
<stop offset="0.497076" stop-color="#0A091E"/>
<stop offset="1" stop-color="#3F7DFF"/>
</linearGradient>
<linearGradient id="paint1_linear_658_4331" x1="89.5503" y1="-69.765" x2="89.5503" y2="190.555" gradientUnits="userSpaceOnUse">
<stop offset="0.4" stop-color="#0A091E"/>
<stop offset="1" stop-color="#0E3DC9"/>
</linearGradient>
<linearGradient id="paint2_linear_658_4331" x1="100.429" y1="25.1075" x2="100.429" y2="208.297" gradientUnits="userSpaceOnUse">
<stop stop-color="#4A3AFF"/>
<stop offset="1" stop-color="#2388FF"/>
</linearGradient>
</defs>
</svg>
