<svg width="1021" height="136" viewBox="0 0 1021 136" fill="none" xmlns="http://www.w3.org/2000/svg">
<path d="M990.322 132.692C980.411 132.692 972.543 130.09 966.72 124.886C961.021 119.683 958.171 112.435 958.171 103.142V11.3359H986.977V98.6822C986.977 103.514 988.278 107.169 990.88 109.647C993.482 112.125 997.013 113.364 1001.47 113.364H1020.24V132.692H990.322ZM935.87 56.31V37.1681H961.145V56.31H935.87ZM984.004 56.31V37.1681H1020.24V56.31H984.004Z" fill="#0A0A0F"/>
<path d="M872.773 135.293C859.64 135.293 848.304 133.187 838.764 128.975C829.224 124.762 821.914 118.877 816.834 111.32C811.878 103.762 809.4 94.9654 809.4 84.9299C809.4 78.859 810.33 73.2837 812.188 68.204C814.046 63.0004 816.71 58.3543 820.179 54.2658C823.772 50.0533 828.109 46.5223 833.188 43.6727C838.392 40.6992 844.277 38.4691 850.843 36.9824C857.534 35.3717 864.844 34.5664 872.773 34.5664C886.03 34.5664 897.366 36.6726 906.782 40.8851C916.198 45.0975 923.384 50.9825 928.34 58.5402C933.42 65.9739 935.96 74.7705 935.96 84.9299C935.96 90.8769 935.03 96.4522 933.172 101.656C931.437 106.859 928.774 111.567 925.181 115.78C921.712 119.868 917.375 123.399 912.172 126.373C907.092 129.223 901.207 131.391 894.517 132.877C887.95 134.488 880.702 135.293 872.773 135.293ZM872.773 114.665C877.357 114.665 881.446 114.169 885.039 113.178C888.631 112.187 891.729 110.762 894.331 108.904C897.056 107.045 899.287 104.877 901.021 102.399C902.879 99.9213 904.242 97.1955 905.11 94.2221C905.977 91.2486 906.411 88.1512 906.411 84.9299C906.411 79.3546 905.172 74.3368 902.694 69.8766C900.34 65.4164 896.623 61.8854 891.543 59.2835C886.587 56.5578 880.331 55.195 872.773 55.195C868.189 55.195 864.1 55.6906 860.507 56.6817C856.914 57.6729 853.755 59.0977 851.029 60.9561C848.304 62.6907 846.011 64.7969 844.153 67.2748C842.418 69.7527 841.118 72.4784 840.25 75.4519C839.383 78.4254 838.949 81.5847 838.949 84.9299C838.949 90.2574 840.188 95.2132 842.666 99.7974C845.144 104.381 848.861 108.036 853.817 110.762C858.897 113.364 865.215 114.665 872.773 114.665Z" fill="#0A0A0F"/>
<path d="M660.506 132.692V0H756.773C769.162 0 778.888 2.91154 785.95 8.73463C793.136 14.4338 796.729 22.3012 796.729 32.3367C796.729 38.7793 795.242 44.3546 792.269 49.0626C789.419 53.7706 785.269 57.4255 779.817 60.0273C774.366 62.6292 767.737 64.1778 759.932 64.6734L762.348 63.5584C770.525 63.6823 777.649 65.1071 783.72 67.8328C789.791 70.4346 794.437 74.2134 797.658 79.1692C801.003 84.0011 802.676 89.7623 802.676 96.4526C802.676 103.886 800.818 110.329 797.101 115.78C793.508 121.232 788.242 125.444 781.304 128.418C774.49 131.267 766.313 132.692 756.773 132.692H660.506ZM690.427 109.833H752.312C756.277 109.833 759.622 109.152 762.348 107.789C765.198 106.302 767.428 104.258 769.038 101.656C770.649 99.0544 771.454 96.019 771.454 92.5499C771.454 88.9569 770.649 85.8596 769.038 83.2578C767.552 80.6559 765.383 78.6117 762.534 77.1249C759.808 75.6382 756.525 74.8948 752.684 74.8948H690.427V109.833ZM690.427 54.0804H750.082C753.427 54.0804 756.277 53.3989 758.631 52.0361C761.109 50.6732 763.029 48.8148 764.392 46.4608C765.755 44.1068 766.437 41.2572 766.437 37.912C766.437 33.204 764.95 29.5491 761.976 26.9473C759.003 24.2216 754.728 22.8587 749.153 22.8587H690.427V54.0804Z" fill="#0A0A0F"/>
<path d="M570.969 135.294C561.553 135.294 552.818 133.373 544.765 129.533C536.835 125.692 530.455 120.055 525.623 112.621C520.791 105.063 518.375 95.7712 518.375 84.7445C518.375 78.178 519.242 72.2311 520.977 66.9035C522.835 61.4521 525.375 56.7441 528.596 52.7795C531.942 48.6909 535.782 45.3457 540.119 42.7439C544.579 40.0182 549.411 37.974 554.614 36.6111C559.818 35.2483 565.269 34.5668 570.969 34.5668C578.402 34.5668 585.217 35.4961 591.411 37.3545C597.606 39.089 602.934 41.6908 607.394 45.1599C611.978 48.5051 615.571 52.5317 618.173 57.2397L615.571 62.2575V0H644.191V132.692H615.571V107.603L618.173 112.621C615.323 117.577 611.482 121.789 606.651 125.258C601.942 128.603 596.491 131.081 590.296 132.692C584.225 134.427 577.783 135.294 570.969 135.294ZM581.376 114.665C585.588 114.665 589.429 114.17 592.898 113.178C596.491 112.187 599.712 110.824 602.562 109.09C605.412 107.232 607.766 105.063 609.624 102.585C611.606 100.108 613.093 97.3818 614.084 94.4083C615.199 91.311 615.757 88.1516 615.757 84.9303C615.757 79.2312 614.332 74.1514 611.482 69.6912C608.633 65.231 604.668 61.6999 599.588 59.0981C594.509 56.4963 588.438 55.1954 581.376 55.1954C577.163 55.1954 573.261 55.691 569.668 56.6822C566.199 57.6733 563.101 59.0981 560.376 60.9566C557.65 62.6911 555.358 64.7973 553.499 67.2752C551.641 69.7531 550.216 72.4788 549.225 75.4523C548.358 78.3019 547.924 81.4613 547.924 84.9303C547.924 90.3817 549.225 95.3995 551.827 99.9836C554.429 104.444 558.207 108.037 563.163 110.763C568.243 113.364 574.314 114.665 581.376 114.665Z" fill="#0A0A0F"/>
<path d="M452.279 135.293C439.27 135.293 428.057 133.187 418.641 128.975C409.349 124.762 402.163 118.877 397.083 111.32C392.127 103.638 389.649 94.8415 389.649 84.9299C389.649 78.859 390.517 73.2837 392.251 68.204C394.11 63.0004 396.773 58.3543 400.242 54.2658C403.835 50.0533 408.172 46.5223 413.251 43.6727C418.331 40.6992 424.154 38.4691 430.721 36.9824C437.287 35.3717 444.473 34.5664 452.279 34.5664C461.695 34.5664 470.181 35.6815 477.739 37.9116C485.297 40.1417 491.677 43.6108 496.881 48.3188C502.208 52.9029 506.235 58.788 508.961 65.9739C511.686 73.0359 512.987 81.4608 512.863 91.2486H407.862V75.4519H483.686C483.067 71.9828 481.89 68.9474 480.155 66.3456C478.421 63.6199 476.19 61.3278 473.465 59.4694C470.739 57.611 467.58 56.2481 463.987 55.3808C460.394 54.5136 456.429 54.0799 452.093 54.0799C447.633 54.0799 443.544 54.5755 439.827 55.5667C436.234 56.5578 433.013 57.9826 430.163 59.8411C427.438 61.5756 425.145 63.7438 423.287 66.3456C421.553 68.8235 420.19 71.6111 419.198 74.7085C418.331 77.8059 417.898 81.213 417.898 84.9299C417.898 90.8769 419.137 96.2044 421.614 100.912C424.216 105.497 428.119 109.151 433.323 111.877C438.526 114.479 444.969 115.78 452.65 115.78C459.712 115.78 465.659 114.913 470.491 113.178C475.323 111.32 478.978 108.594 481.456 105.001H511.191C509.58 110.576 506.483 115.656 501.899 120.24C497.315 124.824 490.934 128.479 482.757 131.205C474.704 133.931 464.544 135.293 452.279 135.293Z" fill="#0A0A0F"/>
<path d="M329.048 135.293C319.012 135.293 310.464 134.488 303.402 132.877C296.34 131.267 290.517 129.037 285.932 126.187C281.472 123.337 278.127 120.116 275.897 116.523C273.667 112.806 272.366 108.904 271.994 104.815H300.8C301.419 106.797 302.72 108.718 304.703 110.576C306.685 112.311 309.658 113.736 313.623 114.851C317.588 115.842 322.729 116.337 329.048 116.337C334.995 116.337 339.827 115.904 343.544 115.036C347.385 114.045 350.172 112.682 351.907 110.948C353.765 109.213 354.694 107.293 354.694 105.187C354.694 102.957 353.827 101.098 352.093 99.6115C350.358 98.1248 347.323 97.0716 342.986 96.4522L311.95 92.5495C299.065 90.9388 289.587 87.9034 283.516 83.4432C277.446 78.9829 274.41 72.7881 274.41 64.8588C274.41 60.3986 275.525 56.372 277.755 52.779C279.985 49.0622 283.269 45.8409 287.605 43.1152C291.941 40.3895 297.393 38.2833 303.959 36.7965C310.526 35.3098 318.145 34.5664 326.818 34.5664C338.836 34.5664 348.562 35.8054 355.995 38.2833C363.553 40.6373 369.19 43.9825 372.907 48.3188C376.748 52.5312 379.102 57.549 379.969 63.3721H350.978C350.606 61.3898 349.491 59.7172 347.632 58.3543C345.898 56.8676 343.296 55.6906 339.827 54.8233C336.358 53.956 331.836 53.5224 326.26 53.5224C321.181 53.5224 316.906 53.956 313.437 54.8233C310.092 55.6906 307.614 56.8676 306.003 58.3543C304.393 59.8411 303.587 61.5756 303.587 63.5579C303.587 65.912 304.579 67.7084 306.561 68.9474C308.543 70.1863 311.393 71.1156 315.11 71.735L348.933 76.0094C355.871 76.8767 361.942 78.3634 367.146 80.4697C372.473 82.5759 376.624 85.5494 379.597 89.3901C382.695 93.107 384.243 97.9389 384.243 103.886C384.243 109.09 383.004 113.674 380.527 117.638C378.049 121.479 374.394 124.762 369.562 127.488C364.854 130.09 359.031 132.01 352.093 133.249C345.278 134.612 337.597 135.293 329.048 135.293Z" fill="#0A0A0F"/>
<path d="M188.48 135.293C176.091 135.293 166.365 132.754 159.303 127.674C152.365 122.594 148.896 115.594 148.896 106.674C148.896 101.098 150.32 96.3283 153.17 92.3636C156.019 88.399 160.294 85.1777 165.993 82.6998C171.692 80.098 178.754 78.4254 187.179 77.682L225.835 73.4076C228.932 73.1598 231.224 72.4165 232.711 71.1775C234.198 69.9386 234.941 68.266 234.941 66.1597V65.9739C234.941 63.2482 233.888 60.9561 231.782 59.0977C229.675 57.2393 226.702 55.8145 222.861 54.8233C219.144 53.8321 214.622 53.3366 209.295 53.3366C201.365 53.3366 195.109 54.3277 190.524 56.3101C185.94 58.1685 183.153 60.9561 182.161 64.673H153.542C154.657 58.2304 157.506 52.779 162.09 48.3188C166.798 43.8586 173.179 40.4514 181.232 38.0974C189.285 35.7434 198.825 34.5664 209.852 34.5664C221.87 34.5664 231.844 35.8673 239.773 38.4691C247.702 41.0709 253.649 45.0356 257.614 50.3631C261.578 55.5667 263.561 62.1331 263.561 70.0624V132.692H236.242V103.886L239.215 107.417C236.366 113.488 232.587 118.629 227.879 122.842C223.171 126.93 217.534 130.028 210.967 132.134C204.401 134.24 196.905 135.293 188.48 135.293ZM198.516 115.78C203.595 115.78 208.303 115.098 212.64 113.736C217.1 112.373 221.003 110.514 224.348 108.16C227.693 105.682 230.295 102.895 232.153 99.7974C234.012 96.5761 234.941 93.1689 234.941 89.576V77.8679L239.587 84.5582C237.605 85.6733 235.127 86.6644 232.153 87.5317C229.18 88.2751 225.215 88.9565 220.259 89.576L191.268 93.2928C186.931 93.7884 183.71 94.9035 181.604 96.638C179.498 98.2487 178.445 100.603 178.445 103.7C178.445 107.541 180.117 110.514 183.462 112.621C186.931 114.727 191.949 115.78 198.516 115.78Z" fill="#0A0A0F"/>
<path d="M0 132.692V0H96.2668C108.656 0 118.382 2.91154 125.444 8.73463C132.63 14.4338 136.223 22.3012 136.223 32.3367C136.223 38.7793 134.736 44.3546 131.763 49.0626C128.913 53.7706 124.763 57.4255 119.311 60.0273C113.86 62.6292 107.232 64.1778 99.4261 64.6734L101.842 63.5584C110.019 63.6823 117.143 65.1071 123.214 67.8328C129.285 70.4346 133.931 74.2134 137.152 79.1692C140.497 84.0011 142.17 89.7623 142.17 96.4526C142.17 103.886 140.312 110.329 136.595 115.78C133.002 121.232 127.736 125.444 120.798 128.418C113.984 131.267 105.807 132.692 96.2668 132.692H0ZM29.9208 109.833H91.8065C95.7712 109.833 99.1164 109.152 101.842 107.789C104.692 106.302 106.922 104.258 108.532 101.656C110.143 99.0544 110.948 96.019 110.948 92.5499C110.948 88.9569 110.143 85.8596 108.532 83.2578C107.046 80.6559 104.877 78.6117 102.028 77.1249C99.3022 75.6382 96.019 74.8948 92.1782 74.8948H29.9208V109.833ZM29.9208 54.0804H89.5764C92.9216 54.0804 95.7712 53.3989 98.1252 52.0361C100.603 50.6732 102.523 48.8148 103.886 46.4608C105.249 44.1068 105.931 41.2572 105.931 37.912C105.931 33.204 104.444 29.5491 101.47 26.9473C98.4969 24.2216 94.2225 22.8587 88.6472 22.8587H29.9208V54.0804Z" fill="#0A0A0F"/>
</svg>
