<svg width="594" height="80" viewBox="0 0 594 80" fill="none" xmlns="http://www.w3.org/2000/svg">
<path d="M76.0832 39.9573C76.0832 20.0056 59.909 3.83134 39.9573 3.83134C20.0056 3.83134 3.83134 20.0056 3.83134 39.9573C3.83134 59.909 20.0056 76.0832 39.9573 76.0832C59.909 76.0832 76.0832 59.909 76.0832 39.9573ZM79.9145 39.9573C79.9145 62.0251 62.0251 79.9145 39.9573 79.9145C17.8895 79.9145 0 62.0251 0 39.9573C0 17.8895 17.8895 0 39.9573 0C62.0251 0 79.9145 17.8895 79.9145 39.9573Z" fill="url(#paint0_linear_658_4281)"/>
<circle cx="40.1418" cy="39.1809" r="26.177" fill="white"/>
<mask id="mask0_658_4281" style="mask-type:alpha" maskUnits="userSpaceOnUse" x="9" y="9" width="62" height="62">
<path fill-rule="evenodd" clip-rule="evenodd" d="M40.1894 9.3457C56.9661 9.3457 70.5662 22.9459 70.5662 39.7226C70.5662 56.4993 56.9661 70.0994 40.1894 70.0994C23.4127 70.0994 9.8125 56.4993 9.8125 39.7226C9.8125 22.9459 23.4127 9.3457 40.1894 9.3457ZM32.5135 46.9252C30.9873 44.0001 25.4551 38.5123 15.5351 39.9622L15.6382 40.1762C18.1092 45.314 21.5262 52.4188 32.5135 46.9252ZM64.8437 39.9622C54.9236 38.5123 49.3914 44.0001 47.8653 46.9252C58.8526 52.4188 62.2695 45.314 64.7405 40.1762L64.8437 39.9622ZM40.2948 29.7524C40.262 29.5453 39.8644 29.5453 39.8316 29.7524L39.5587 31.4926C39.2061 33.7393 36.8632 35.5109 33.8917 35.7776L31.5902 35.9839C31.316 36.0086 31.316 36.3093 31.5902 36.3339L33.8917 36.5407C36.8631 36.8073 39.206 38.5785 39.5587 40.8252L39.8316 42.5654C39.8643 42.7727 40.2621 42.7727 40.2948 42.5654L40.5677 40.8252C40.9203 38.5785 43.2632 36.8073 46.2346 36.5407L48.5362 36.3339C48.8103 36.3092 48.8103 36.0086 48.5362 35.9839L46.2346 35.7776C43.2632 35.511 40.9203 33.7394 40.5677 31.4926L40.2948 29.7524Z" fill="white"/>
</mask>
<g mask="url(#mask0_658_4281)">
<circle cx="40.1894" cy="39.7226" r="30.3769" fill="url(#paint1_linear_658_4281)"/>
<g opacity="0.4" filter="url(#filter0_fg_658_4281)">
<ellipse cx="45.0737" cy="38.3754" rx="45.0737" ry="38.3754" transform="matrix(1 0 0 -1 -4.67188 128.628)" fill="url(#paint2_linear_658_4281)"/>
<path d="M40.4014 128.395C65.2023 128.395 85.2419 111.284 85.2422 90.2529C85.2422 69.2217 65.2025 52.1104 40.4014 52.1104C15.6004 52.1106 -4.43848 69.2218 -4.43848 90.2529C-4.43823 111.284 15.6006 128.394 40.4014 128.395Z" stroke="white" stroke-width="0.467336"/>
</g>
<g filter="url(#filter1_fg_658_4281)" style="mix-blend-mode:plus-lighter">
<ellipse cx="23.9806" cy="18.5589" rx="23.9806" ry="18.5589" transform="matrix(1 0 0 -1 16.4219 95.0615)" fill="#3F6EC2"/>
<path d="M40.4023 94.8281C53.5765 94.8281 64.1492 86.5714 64.1494 76.5029C64.1494 66.4344 53.5766 58.1777 40.4023 58.1777C27.2281 58.1778 16.6553 66.4344 16.6553 76.5029C16.6555 86.5713 27.2282 94.8281 40.4023 94.8281Z" stroke="white" stroke-width="0.467336"/>
</g>
</g>
<path d="M578.452 71.6931C573.617 71.6931 569.779 70.4239 566.938 67.8853C564.158 65.3468 562.768 61.811 562.768 57.278V12.4912H576.821V55.1021C576.821 57.4593 577.455 59.2423 578.724 60.4511C579.994 61.6599 581.716 62.2643 583.892 62.2643H593.049V71.6931H578.452ZM551.889 34.4313V25.0932H564.219V34.4313H551.889ZM575.37 34.4313V25.0932H593.049V34.4313H575.37Z" fill="white"/>
<path d="M521.107 72.9588C514.7 72.9588 509.17 71.9313 504.516 69.8763C499.862 67.8213 496.296 64.9504 493.818 61.2635C491.4 57.5766 490.191 53.2853 490.191 48.3896C490.191 45.4279 490.645 42.7081 491.551 40.23C492.458 37.6915 493.757 35.425 495.45 33.4304C497.203 31.3754 499.318 29.6529 501.796 28.2627C504.335 26.8121 507.206 25.7242 510.409 24.9989C513.673 24.2132 517.239 23.8203 521.107 23.8203C527.574 23.8203 533.104 24.8478 537.698 26.9028C542.291 28.9578 545.797 31.8287 548.215 35.5156C550.693 39.1421 551.932 43.4334 551.932 48.3896C551.932 51.2907 551.479 54.0106 550.572 56.5491C549.726 59.0876 548.426 61.3844 546.673 63.4393C544.981 65.4339 542.866 67.1565 540.327 68.607C537.849 69.9972 534.978 71.0549 531.714 71.7802C528.511 72.5659 524.975 72.9588 521.107 72.9588ZM521.107 62.8954C523.343 62.8954 525.338 62.6536 527.091 62.1701C528.843 61.6866 530.354 60.9915 531.624 60.0849C532.953 59.1783 534.041 58.1205 534.887 56.9117C535.794 55.7029 536.459 54.3732 536.882 52.9226C537.305 51.472 537.517 49.961 537.517 48.3896C537.517 45.6697 536.912 43.2218 535.703 41.046C534.555 38.8701 532.742 37.1475 530.264 35.8783C527.846 34.5486 524.794 33.8837 521.107 33.8837C518.871 33.8837 516.876 34.1255 515.123 34.609C513.371 35.0925 511.829 35.7876 510.5 36.6942C509.17 37.5404 508.052 38.5679 507.145 39.7767C506.299 40.9855 505.664 42.3152 505.241 43.7658C504.818 45.2164 504.607 46.7576 504.607 48.3896C504.607 50.9885 505.211 53.4061 506.42 55.6425C507.629 57.8788 509.442 59.6618 511.859 60.9915C514.338 62.2607 517.42 62.8954 521.107 62.8954Z" fill="white"/>
<path d="M417.555 71.6893V6.95703H464.517C470.561 6.95703 475.306 8.37739 478.751 11.2181C482.257 13.9984 484.01 17.8364 484.01 22.7321C484.01 25.875 483.284 28.5949 481.834 30.8916C480.443 33.1884 478.419 34.9714 475.759 36.2407C473.1 37.5099 469.866 38.2654 466.059 38.5072L467.237 37.9632C471.226 38.0237 474.702 38.7187 477.663 40.0484C480.625 41.3177 482.891 43.1612 484.463 45.5788C486.095 47.936 486.911 50.7465 486.911 54.0103C486.911 57.6368 486.004 60.7797 484.191 63.4391C482.438 66.0985 479.869 68.1535 476.485 69.6041C473.16 70.9942 469.171 71.6893 464.517 71.6893H417.555ZM432.151 60.5379H462.341C464.276 60.5379 465.907 60.2055 467.237 59.5406C468.627 58.8154 469.715 57.8181 470.501 56.5488C471.287 55.2796 471.68 53.7988 471.68 52.1064C471.68 50.3536 471.287 48.8426 470.501 47.5733C469.776 46.3041 468.718 45.3068 467.328 44.5815C465.998 43.8562 464.396 43.4936 462.523 43.4936H432.151V60.5379ZM432.151 33.3395H461.253C462.885 33.3395 464.276 33.0071 465.424 32.3422C466.633 31.6774 467.57 30.7708 468.234 29.6224C468.899 28.474 469.232 27.0839 469.232 25.452C469.232 23.1552 468.506 21.3722 467.056 20.1029C465.605 18.7732 463.52 18.1084 460.8 18.1084H432.151V33.3395Z" fill="white"/>
<path d="M373.878 72.9585C369.284 72.9585 365.023 72.0217 361.095 70.148C357.226 68.2744 354.114 65.5243 351.756 61.8978C349.399 58.2109 348.221 53.6779 348.221 48.2986C348.221 45.0953 348.644 42.1941 349.49 39.5951C350.397 36.9357 351.636 34.639 353.207 32.7049C354.839 30.7103 356.713 29.0784 358.828 27.8092C361.004 26.4795 363.361 25.4822 365.9 24.8173C368.438 24.1525 371.098 23.8201 373.878 23.8201C377.504 23.8201 380.829 24.2734 383.851 25.18C386.873 26.0261 389.472 27.2954 391.648 28.9878C393.884 30.6197 395.637 32.584 396.906 34.8807L395.637 37.3286V6.95703H409.598V71.6893H395.637V59.45L396.906 61.8978C395.516 64.3155 393.642 66.3705 391.285 68.0628C388.988 69.6947 386.329 70.9035 383.307 71.6893C380.345 72.5354 377.202 72.9585 373.878 72.9585ZM378.955 62.8951C381.01 62.8951 382.884 62.6534 384.576 62.1698C386.329 61.6863 387.9 61.0215 389.29 60.1753C390.68 59.2687 391.829 58.2109 392.735 57.0021C393.702 55.7933 394.428 54.4636 394.911 53.013C395.455 51.502 395.727 49.9608 395.727 48.3893C395.727 45.609 395.032 43.1309 393.642 40.9551C392.252 38.7792 390.318 37.0566 387.84 35.7874C385.362 34.5181 382.4 33.8835 378.955 33.8835C376.9 33.8835 374.996 34.1252 373.243 34.6088C371.551 35.0923 370.04 35.7874 368.71 36.694C367.38 37.5401 366.262 38.5676 365.356 39.7765C364.449 40.9853 363.754 42.315 363.27 43.7656C362.847 45.1557 362.636 46.697 362.636 48.3893C362.636 51.0487 363.27 53.4966 364.54 55.7329C365.809 57.9087 367.652 59.6615 370.07 60.9912C372.548 62.2605 375.51 62.8951 378.955 62.8951Z" fill="white"/>
<path d="M315.969 72.9588C309.623 72.9588 304.153 71.9313 299.559 69.8763C295.026 67.8213 291.521 64.9504 289.042 61.2635C286.625 57.5161 285.416 53.2248 285.416 48.3896C285.416 45.4279 285.839 42.7081 286.685 40.23C287.592 37.6915 288.891 35.425 290.584 33.4304C292.337 31.3754 294.452 29.6529 296.93 28.2627C299.408 26.8121 302.249 25.7242 305.452 24.9989C308.656 24.2132 312.161 23.8203 315.969 23.8203C320.562 23.8203 324.703 24.3643 328.39 25.4522C332.076 26.5401 335.189 28.2325 337.728 30.5293C340.327 32.7656 342.291 35.6365 343.621 39.1421C344.95 42.5872 345.585 46.6972 345.525 51.472H294.301V43.7658H331.291C330.988 42.0735 330.414 40.5927 329.568 39.3234C328.722 37.9937 327.634 36.8756 326.304 35.9689C324.975 35.0623 323.433 34.3975 321.681 33.9744C319.928 33.5513 317.994 33.3398 315.878 33.3398C313.702 33.3398 311.708 33.5815 309.895 34.065C308.142 34.5486 306.57 35.2436 305.18 36.1503C303.851 36.9964 302.732 38.0541 301.826 39.3234C300.98 40.5322 300.315 41.8921 299.831 43.4032C299.408 44.9142 299.197 46.5763 299.197 48.3896C299.197 51.2907 299.801 53.8897 301.01 56.1864C302.279 58.4227 304.183 60.2058 306.721 61.5355C309.26 62.8047 312.403 63.4393 316.15 63.4393C319.595 63.4393 322.497 63.0163 324.854 62.1701C327.211 61.2635 328.994 59.9338 330.203 58.181H344.709C343.923 60.9008 342.412 63.3789 340.176 65.6152C337.939 67.8515 334.826 69.6345 330.837 70.9642C326.909 72.2939 321.953 72.9588 315.969 72.9588Z" fill="white"/>
<path d="M255.856 72.9588C250.961 72.9588 246.79 72.5659 243.345 71.7802C239.9 70.9945 237.059 69.9065 234.823 68.5164C232.647 67.1262 231.015 65.5548 229.927 63.802C228.839 61.9888 228.205 60.0849 228.023 58.0903H242.076C242.378 59.0574 243.013 59.9942 243.98 60.9008C244.947 61.747 246.397 62.4421 248.332 62.986C250.266 63.4696 252.774 63.7113 255.856 63.7113C258.758 63.7113 261.115 63.4998 262.928 63.0767C264.802 62.5932 266.162 61.9283 267.008 61.0821C267.914 60.236 268.368 59.2991 268.368 58.2716C268.368 57.1837 267.945 56.2771 267.099 55.5518C266.252 54.8265 264.772 54.3128 262.656 54.0106L247.516 52.1067C241.23 51.3209 236.606 49.8401 233.644 47.6643C230.683 45.4884 229.202 42.4663 229.202 38.5981C229.202 36.4222 229.746 34.4579 230.834 32.7051C231.922 30.8919 233.524 29.3204 235.639 27.9907C237.754 26.661 240.414 25.6335 243.617 24.9082C246.821 24.183 250.538 23.8203 254.769 23.8203C260.631 23.8203 265.376 24.4247 269.002 25.6335C272.689 26.7819 275.439 28.4138 277.253 30.5293C279.126 32.5842 280.275 35.0321 280.698 37.8728H266.555C266.373 36.9058 265.829 36.0898 264.923 35.425C264.076 34.6997 262.807 34.1255 261.115 33.7024C259.423 33.2793 257.216 33.0678 254.497 33.0678C252.018 33.0678 249.933 33.2793 248.241 33.7024C246.609 34.1255 245.4 34.6997 244.614 35.425C243.829 36.1503 243.436 36.9964 243.436 37.9635C243.436 39.1119 243.919 39.9883 244.886 40.5927C245.854 41.1971 247.244 41.6504 249.057 41.9526L265.557 44.0378C268.942 44.4609 271.904 45.1862 274.442 46.2137C277.041 47.2412 279.066 48.6918 280.516 50.5654C282.027 52.3786 282.783 54.7358 282.783 57.637C282.783 60.1755 282.179 62.4118 280.97 64.346C279.761 66.2196 277.978 67.8213 275.621 69.151C273.324 70.4203 270.483 71.3571 267.099 71.9615C263.774 72.6264 260.027 72.9588 255.856 72.9588Z" fill="white"/>
<path d="M187.276 72.9588C181.232 72.9588 176.487 71.7198 173.042 69.2417C169.657 66.7636 167.965 63.3487 167.965 58.9969C167.965 56.2771 168.66 53.9501 170.05 52.016C171.44 50.0819 173.525 48.5104 176.306 47.3016C179.086 46.0323 182.531 45.2164 186.641 44.8538L205.499 42.7685C207.01 42.6477 208.128 42.285 208.853 41.6806C209.578 41.0762 209.941 40.2602 209.941 39.2327V39.1421C209.941 37.8124 209.427 36.6942 208.4 35.7876C207.372 34.881 205.922 34.1859 204.048 33.7024C202.235 33.2189 200.029 32.9771 197.43 32.9771C193.562 32.9771 190.509 33.4606 188.273 34.4277C186.037 35.3343 184.677 36.6942 184.193 38.5075H170.231C170.775 35.3645 172.165 32.7051 174.402 30.5293C176.699 28.3534 179.811 26.6913 183.74 25.5429C187.669 24.3945 192.323 23.8203 197.702 23.8203C203.565 23.8203 208.43 24.4549 212.298 25.7242C216.166 26.9935 219.068 28.9276 221.002 31.5265C222.936 34.065 223.903 37.2684 223.903 41.1366V71.6895H210.576V57.637L212.026 59.3596C210.636 62.3212 208.793 64.8295 206.496 66.8845C204.199 68.879 201.449 70.3901 198.246 71.4175C195.042 72.445 191.386 72.9588 187.276 72.9588ZM192.171 63.4393C194.65 63.4393 196.946 63.1069 199.062 62.4421C201.238 61.7772 203.141 60.8706 204.773 59.7222C206.405 58.5134 207.675 57.1535 208.581 55.6425C209.488 54.071 209.941 52.4089 209.941 50.6561V44.9444L212.208 48.2082C211.241 48.7522 210.032 49.2357 208.581 49.6588C207.131 50.0215 205.196 50.3539 202.779 50.6561L188.636 52.4693C186.52 52.7111 184.949 53.255 183.921 54.1012C182.894 54.887 182.38 56.0353 182.38 57.5464C182.38 59.42 183.196 60.8706 184.828 61.8981C186.52 62.9256 188.968 63.4393 192.171 63.4393Z" fill="white"/>
<path d="M95.3359 71.6893V6.95703H142.299C148.343 6.95703 153.087 8.37739 156.532 11.2181C160.038 13.9984 161.791 17.8364 161.791 22.7321C161.791 25.875 161.065 28.5949 159.615 30.8916C158.225 33.1884 156.2 34.9714 153.541 36.2407C150.881 37.5099 147.648 38.2654 143.84 38.5072L145.018 37.9632C149.007 38.0237 152.483 38.7187 155.444 40.0484C158.406 41.3177 160.673 43.1612 162.244 45.5788C163.876 47.936 164.692 50.7465 164.692 54.0103C164.692 57.6368 163.785 60.7797 161.972 63.4391C160.219 66.0985 157.651 68.1535 154.266 69.6041C150.942 70.9942 146.952 71.6893 142.299 71.6893H95.3359ZM109.932 60.5379H140.123C142.057 60.5379 143.689 60.2055 145.018 59.5406C146.409 58.8154 147.496 57.8181 148.282 56.5488C149.068 55.2796 149.461 53.7988 149.461 52.1064C149.461 50.3536 149.068 48.8426 148.282 47.5733C147.557 46.3041 146.499 45.3068 145.109 44.5815C143.779 43.8562 142.178 43.4936 140.304 43.4936H109.932V60.5379ZM109.932 33.3395H139.035C140.667 33.3395 142.057 33.0071 143.205 32.3422C144.414 31.6774 145.351 30.7708 146.016 29.6224C146.681 28.474 147.013 27.0839 147.013 25.452C147.013 23.1552 146.288 21.3722 144.837 20.1029C143.386 18.7732 141.301 18.1084 138.581 18.1084H109.932V33.3395Z" fill="white"/>
<defs>
<filter id="filter0_fg_658_4281" x="-32.9783" y="23.5705" width="146.759" height="133.364" filterUnits="userSpaceOnUse" color-interpolation-filters="sRGB">
<feFlood flood-opacity="0" result="BackgroundImageFix"/>
<feBlend mode="normal" in="SourceGraphic" in2="BackgroundImageFix" result="shape"/>
<feGaussianBlur stdDeviation="14.1532" result="effect1_foregroundBlur_658_4281"/>
<feTurbulence type="fractalNoise" baseFrequency="0.99900001287460327 0.99900001287460327" numOctaves="3" seed="3243" />
<feDisplacementMap in="effect1_foregroundBlur_658_4281" scale="25.429450988769531" xChannelSelector="R" yChannelSelector="G" result="displacedImage" width="100%" height="100%" />
<feMerge result="effect2_texture_658_4281">
<feMergeNode in="displacedImage"/>
</feMerge>
</filter>
<filter id="filter1_fg_658_4281" x="0.980144" y="42.5016" width="78.8444" height="68.0016" filterUnits="userSpaceOnUse" color-interpolation-filters="sRGB">
<feFlood flood-opacity="0" result="BackgroundImageFix"/>
<feBlend mode="normal" in="SourceGraphic" in2="BackgroundImageFix" result="shape"/>
<feGaussianBlur stdDeviation="7.72087" result="effect1_foregroundBlur_658_4281"/>
<feTurbulence type="fractalNoise" baseFrequency="0.99900001287460327 0.99900001287460327" numOctaves="3" seed="3894" />
<feDisplacementMap in="effect1_foregroundBlur_658_4281" scale="25.429450988769531" xChannelSelector="R" yChannelSelector="G" result="displacedImage" width="100%" height="100%" />
<feMerge result="effect2_texture_658_4281">
<feMergeNode in="displacedImage"/>
</feMerge>
</filter>
<linearGradient id="paint0_linear_658_4281" x1="39.9573" y1="0" x2="39.9573" y2="79.9145" gradientUnits="userSpaceOnUse">
<stop stop-color="#3F7DFF"/>
<stop offset="0.497076" stop-color="#0A091E"/>
<stop offset="1" stop-color="#3F7DFF"/>
</linearGradient>
<linearGradient id="paint1_linear_658_4281" x1="40.1894" y1="-31.3126" x2="40.1894" y2="85.5216" gradientUnits="userSpaceOnUse">
<stop offset="0.4" stop-color="#0A091E"/>
<stop offset="1" stop-color="#0E3DC9"/>
</linearGradient>
<linearGradient id="paint2_linear_658_4281" x1="45.0737" y1="11.2685" x2="45.0737" y2="93.4859" gradientUnits="userSpaceOnUse">
<stop stop-color="#4A3AFF"/>
<stop offset="1" stop-color="#2388FF"/>
</linearGradient>
</defs>
</svg>
